HIERARCHY
ROOT Pelvis
{
	OFFSET 0.000000 0.000000 0.000000
	CHANNELS 6 Xposition Yposition Zposition Xrotation Yrotation Zrotation
	JOINT LeftUpLeg_virtual
	{
		OFFSET 0.000000 0.000000 0.000000
		CHANNELS 3 Xrotation Yrotation Zrotation
		JOINT LeftUpLeg
		{
			OFFSET 18.735201 -5.666702 -4.541200
			CHANNELS 3 Xrotation Yrotation Zrotation
			JOINT LeftLeg
			{
				OFFSET -0.021200 -31.938179 0.493100
				CHANNELS 3 Xrotation Yrotation Zrotation
				JOINT LeftFoot
				{
					OFFSET 0.021200 -31.938179 -4.336299
					CHANNELS 3 Xrotation Yrotation Zrotation
					JOINT LeftToeBase
					{
						OFFSET 0.943001 -26.722000 15.023500
						CHANNELS 3 Xrotation Yrotation Zrotation
						End Site
						{
							OFFSET 0 0 0
						}
					}
				}
			}
		}
	}
	JOINT RightUpLeg_virtual
	{
		OFFSET 0.000000 0.000000 0.000000
		CHANNELS 3 Xrotation Yrotation Zrotation
		JOINT RightUpLeg
		{
			OFFSET -18.735201 -5.666702 -4.541200
			CHANNELS 3 Xrotation Yrotation Zrotation
			JOINT RightLeg
			{
				OFFSET 0.018946 -31.938133 0.493100
				CHANNELS 3 Xrotation Yrotation Zrotation
				JOINT RightFoot
				{
					OFFSET -0.018946 -31.938126 -4.336299
					CHANNELS 3 Xrotation Yrotation Zrotation
					JOINT RightToeBase
					{
						OFFSET -0.943001 -26.722004 15.023500
						CHANNELS 3 Xrotation Yrotation Zrotation
						End Site
						{
							OFFSET 0 0 0
						}
					}
				}
			}
		}
	}
	JOINT Hips_virtual
	{
		OFFSET 0.000000 0.000000 0.000000
		CHANNELS 3 Xrotation Yrotation Zrotation
		JOINT Hips
		{
			OFFSET -0.000000 -0.000000 -0.000000
			CHANNELS 3 Xrotation Yrotation Zrotation
			JOINT Spine
			{
				OFFSET 0.000000 10.199997 -0.299500
				CHANNELS 3 Xrotation Yrotation Zrotation
				JOINT Spine1
				{
					OFFSET 0.000000 11.900002 -1.516600
					CHANNELS 3 Xrotation Yrotation Zrotation
					JOINT Spine2
					{
						OFFSET 0.000000 13.600006 -2.842500
						CHANNELS 3 Xrotation Yrotation Zrotation
						JOINT Neck_virtual
						{
							OFFSET 0.000000 0.000000 0.000000
							CHANNELS 3 Xrotation Yrotation Zrotation
							JOINT Neck
							{
								OFFSET 0.000000 9.624100 -2.890100
								CHANNELS 3 Xrotation Yrotation Zrotation
								JOINT Head
								{
									OFFSET 0.000000 14.068802 -1.351900
									CHANNELS 3 Xrotation Yrotation Zrotation
									End Site
									{
										OFFSET 0 0 0
									}
								}
							}
						}
						JOINT LeftShoulder_virtual
						{
							OFFSET 0.000000 0.000000 0.000000
							CHANNELS 3 Xrotation Yrotation Zrotation
							JOINT LeftShoulder
							{
								OFFSET 15.263000 10.923401 -0.547700
								CHANNELS 3 Xrotation Yrotation Zrotation
								JOINT LeftArm
								{
									OFFSET 25.438599 -2.830597 -13.032500
									CHANNELS 3 Xrotation Yrotation Zrotation
									JOINT LeftForeArm
									{
										OFFSET 29.960503 0.000000 0.000000
										CHANNELS 3 Xrotation Yrotation Zrotation
										JOINT LeftHand
										{
											OFFSET 27.849251 0.000000 0.000000
											CHANNELS 3 Xrotation Yrotation Zrotation
											End Site
											{
												OFFSET 0 0 0
											}
										}
									}
								}
							}
						}
						JOINT RightShoulder_virtual
						{
							OFFSET 0.000000 0.000000 0.000000
							CHANNELS 3 Xrotation Yrotation Zrotation
							JOINT RightShoulder
							{
								OFFSET -15.263000 10.923401 -0.547700
								CHANNELS 3 Xrotation Yrotation Zrotation
								JOINT RightArm
								{
									OFFSET -25.438599 -2.830597 -13.032500
									CHANNELS 3 Xrotation Yrotation Zrotation
									JOINT RightForeArm
									{
										OFFSET -29.960503 0.000000 0.000000
										CHANNELS 3 Xrotation Yrotation Zrotation
										JOINT RightHand
										{
											OFFSET -27.849251 0.000000 0.000000
											CHANNELS 3 Xrotation Yrotation Zrotation
											End Site
											{
												OFFSET 0 0 0
											}
										}
									}
								}
							}
						}
					}
				}
			}
		}
	}
}
MOTION
Frames: 11
Frame Time: 0.03333333
0.063768 92.471809 2.622081 0.000000 0.000000 0.000000 12.998448 -6.048781 -2.626087 -23.458181 11.568239 12.603842 30.001965 -1.192567 -0.213555 -17.173064 -0.857257 -6.088626 0.000000 0.000000 0.000000 9.954748 4.369037 3.837609 -15.414209 -5.209493 -9.535237 26.544472 -11.225152 1.869481 -21.175472 -16.159396 7.395286 0.000000 0.000000 0.000000 -0.034413 0.190351 -0.179749 -0.403290 3.700733 -1.480172 4.139303 -0.839995 -0.059477 0.897035 -0.012296 -0.144290 0.000000 0.000000 0.000000 4.709371 0.225382 0.904322 0.282883 -0.410741 0.559204 0.000000 0.000000 0.000000 4.227226 -1.344407 0.476990 2.783244 -16.466848 -3.563191 2.000903 2.132454 -61.519500 2.076195 -31.347689 -7.342432 0.000000 0.000000 0.000000 2.193345 -1.109785 1.310504 0.927391 0.058854 12.387198 6.354018 6.013253 56.308612 4.534370 37.728292 5.875180 0.000000 0.000000 0.000000 
0.074305 92.469147 2.601205 0.000000 0.000000 0.000000 13.011109 -6.067827 -2.661900 -23.421439 11.575446 12.554714 29.913309 -1.173409 -0.226323 -17.242039 -0.826205 -6.101910 0.000000 0.000000 0.000000 10.002455 4.579522 3.821306 -15.347358 -5.157679 -9.525264 26.471807 -11.295084 1.919181 -21.246639 -16.247454 7.431667 0.000000 0.000000 0.000000 -0.012483 0.290244 -0.179263 -0.439920 3.880441 -1.447089 4.082008 -0.892615 -0.078980 0.862026 -0.023057 -0.140861 0.000000 0.000000 0.000000 4.708366 0.239255 0.933228 0.278439 -0.412132 0.567841 0.000000 0.000000 0.000000 4.257110 -1.374858 0.513060 2.859380 -16.668542 -3.428524 1.998154 2.421984 -61.640490 2.029350 -31.099415 -7.418698 0.000000 0.000000 0.000000 2.150009 -1.103698 1.308837 0.935643 -0.047126 12.480578 6.425302 6.037662 56.418636 4.586630 37.665317 5.879209 0.000000 0.000000 0.000000 
0.088658 92.459953 2.557020 0.000000 0.000000 0.000000 13.031290 -6.088642 -2.723785 -23.362720 11.590180 12.473434 29.768222 -1.136192 -0.247212 -17.355567 -0.768877 -6.121468 0.000000 0.000000 0.000000 10.087278 4.951188 3.796556 -15.231079 -5.067379 -9.503346 26.343573 -11.414101 2.007620 -21.373590 -16.397788 7.499158 0.000000 0.000000 0.000000 0.032689 0.473831 -0.173516 -0.519209 4.231059 -1.390811 3.973634 -0.982790 -0.115308 0.800171 -0.043458 -0.137396 0.000000 0.000000 0.000000 4.708915 0.265316 0.985351 0.271034 -0.415500 0.582862 0.000000 0.000000 0.000000 4.309457 -1.433132 0.576355 2.995529 -17.046800 -3.186892 1.997021 2.952469 -61.861549 1.937383 -30.664339 -7.562871 0.000000 0.000000 0.000000 2.068419 -1.093079 1.305422 0.946738 -0.248707 12.650396 6.549145 6.066996 56.628658 4.678917 37.530858 5.893177 0.000000 0.000000 0.000000 
0.096699 92.438736 2.487875 0.000000 0.000000 0.000000 13.050773 -6.083845 -2.795388 -23.304885 11.612632 12.387559 29.615588 -1.083759 -0.268670 -17.476772 -0.693964 -6.136435 0.000000 0.000000 0.000000 10.190810 5.399492 3.775672 -15.093921 -4.961067 -9.467116 26.188634 -11.549388 2.116349 -21.529808 -16.569689 7.587420 0.000000 0.000000 0.000000 0.104599 0.715881 -0.154789 -0.643680 4.731133 -1.327261 3.826635 -1.086484 -0.163175 0.723785 -0.071623 -0.138300 0.000000 0.000000 0.000000 4.714545 0.300697 1.051313 0.262568 -0.421668 0.600660 0.000000 0.000000 0.000000 4.372285 -1.514232 0.652913 3.165357 -17.557964 -2.883996 1.999869 3.644881 -62.145644 1.802098 -30.142356 -7.759460 0.000000 0.000000 0.000000 1.958821 -1.080404 1.300228 0.953901 -0.527647 12.869157 6.698020 6.072346 56.918842 4.791372 37.314519 5.924685 0.000000 0.000000 0.000000 
0.089897 92.401527 2.396759 0.000000 0.000000 0.000000 13.061351 -6.026878 -2.858831 -23.269037 11.642241 12.325218 29.499635 -1.021134 -0.282947 -17.572383 -0.612292 -6.136623 0.000000 0.000000 0.000000 10.292104 5.828849 3.769750 -14.965320 -4.863356 -9.416387 26.039681 -11.668760 2.224989 -21.684268 -16.722999 7.682468 0.000000 0.000000 0.000000 0.209233 0.992348 -0.115352 -0.801030 5.343418 -1.272280 3.658781 -1.179563 -0.215561 0.643793 -0.105282 -0.146065 0.000000 0.000000 0.000000 4.727466 0.342183 1.120870 0.253932 -0.431093 0.617510 0.000000 0.000000 0.000000 4.433568 -1.611058 0.728841 3.341174 -18.148665 -2.569695 2.000880 4.415279 -62.448174 1.624305 -29.636543 -7.988208 0.000000 0.000000 0.000000 1.836063 -1.068112 1.293432 0.954366 -0.861318 13.107901 6.849216 6.029449 57.260358 4.903707 37.013755 5.977026 0.000000 0.000000 0.000000 
0.065640 92.348007 2.292945 0.000000 0.000000 0.000000 13.057659 -5.902254 -2.899891 -23.266075 11.677215 12.305602 29.444754 -0.954947 -0.284601 -17.623852 -0.534422 -6.116246 0.000000 0.000000 0.000000 10.374241 6.159634 3.783018 -14.865087 -4.793524 -9.355489 25.925417 -11.750575 2.316772 -21.808227 -16.830474 7.769926 0.000000 0.000000 0.000000 0.352843 1.288187 -0.050550 -0.960912 6.017093 -1.235980 3.490242 -1.245060 -0.265897 0.565856 -0.141934 -0.159924 0.000000 0.000000 0.000000 4.746903 0.387011 1.185140 0.244246 -0.443236 0.630480 0.000000 0.000000 0.000000 4.485644 -1.714682 0.794109 3.501601 -18.762987 -2.286819 1.986187 5.194057 -62.727938 1.405529 -29.221670 -8.227314 0.000000 0.000000 0.000000 1.717621 -1.057836 1.285385 0.952728 -1.225832 13.343393 6.994355 5.928706 57.617215 5.001787 36.640007 6.044828 0.000000 0.000000 0.000000 
0.028440 92.281601 2.190450 0.000000 0.000000 0.000000 13.039179 -5.711431 -2.911387 -23.292683 11.714583 12.333681 29.453022 -0.891842 -0.271787 -17.628640 -0.468380 -6.075152 0.000000 0.000000 0.000000 10.429783 6.348928 3.810059 -14.796889 -4.760284 -9.293651 25.864422 -11.787018 2.382269 -21.881018 -16.882342 7.839386 0.000000 0.000000 0.000000 0.536986 1.598072 0.039081 -1.084271 6.698037 -1.219404 3.339121 -1.276147 -0.310637 0.490018 -0.179072 -0.176832 0.000000 0.000000 0.000000 4.769102 0.433307 1.237582 0.231320 -0.456277 0.637784 0.000000 0.000000 0.000000 4.527547 -1.814975 0.843560 3.635160 -19.347727 -2.065799 1.941445 5.932016 -62.957159 1.151810 -28.928815 -8.457093 0.000000 0.000000 0.000000 1.620395 -1.050286 1.276214 0.960205 -1.598890 13.560182 7.139539 5.776202 57.949087 5.080591 36.217891 6.113615 0.000000 0.000000 0.000000 
-0.012749 92.208061 2.104535 0.000000 0.000000 0.000000 13.011200 -5.473255 -2.893501 -23.332387 11.750657 12.400873 29.512441 -0.836624 -0.245959 -17.593722 -0.418347 -6.017476 0.000000 0.000000 0.000000 10.462749 6.397977 3.837812 -14.747977 -4.760633 -9.242445 25.861562 -11.781514 2.420251 -21.893818 -16.883567 7.887502 0.000000 0.000000 0.000000 0.753606 1.920183 0.147341 -1.141304 7.343385 -1.214856 3.217183 -1.274900 -0.350535 0.413354 -0.214781 -0.193720 0.000000 0.000000 0.000000 4.789161 0.479999 1.273958 0.213101 -0.467452 0.638707 0.000000 0.000000 0.000000 4.564322 -1.901895 0.875712 3.739540 -19.857803 -1.923564 1.860714 6.595769 -63.127846 0.876529 -28.748891 -8.663113 0.000000 0.000000 0.000000 1.557202 -1.045798 1.265175 0.990242 -1.962440 13.748203 7.297468 5.587169 58.214754 5.142900 35.777176 6.163136 0.000000 0.000000 0.000000 
-0.049504 92.133972 2.048472 0.000000 0.000000 0.000000 12.984118 -5.219485 -2.851354 -23.360960 11.781561 12.490568 29.608648 -0.790994 -0.210454 -17.527099 -0.384527 -5.948835 0.000000 0.000000 0.000000 10.486336 6.344911 3.851572 -14.694843 -4.782869 -9.211197 25.907935 -11.743279 2.435758 -21.850487 -16.847170 7.918074 0.000000 0.000000 0.000000 0.984212 2.247379 0.263606 -1.127443 7.932495 -1.209749 3.127987 -1.248823 -0.389294 0.333359 -0.248480 -0.209250 0.000000 0.000000 0.000000 4.803539 0.526317 1.292085 0.189208 -0.473965 0.633512 0.000000 0.000000 0.000000 4.603870 -1.967329 0.891030 3.818506 -20.262048 -1.863482 1.749834 7.161099 -63.251226 0.599070 -28.648989 -8.838000 0.000000 0.000000 0.000000 1.534262 -1.045069 1.250260 1.052619 -2.304645 13.899060 7.477370 5.377234 58.375769 5.195498 35.342964 6.172652 0.000000 0.000000 0.000000 
-0.078530 92.065811 2.031681 0.000000 0.000000 0.000000 12.970685 -4.986996 -2.791371 -23.354126 11.803585 12.585444 29.733091 -0.753245 -0.168954 -17.432615 -0.363805 -5.873806 0.000000 0.000000 0.000000 10.517672 6.247375 3.841762 -14.612160 -4.811944 -9.202795 25.985036 -11.682408 2.436424 -21.764995 -16.787451 7.938734 0.000000 0.000000 0.000000 1.205535 2.563002 0.375402 -1.067759 8.466835 -1.192612 3.068182 -1.207315 -0.430482 0.250175 -0.281289 -0.224037 0.000000 0.000000 0.000000 4.811836 0.571112 1.291641 0.161555 -0.474118 0.623292 0.000000 0.000000 0.000000 4.652918 -2.006681 0.890897 3.878534 -20.546922 -1.875486 1.622001 7.610021 -63.350599 0.339357 -28.591249 -8.981418 0.000000 0.000000 0.000000 1.550429 -1.049467 1.228542 1.148872 -2.619898 14.003856 7.678492 5.156720 58.400515 5.245275 34.929024 6.126048 0.000000 0.000000 0.000000 
-0.102853 92.009758 2.059015 0.000000 0.000000 0.000000 12.981784 -4.808457 -2.718654 -23.295421 11.813624 12.673136 29.884352 -0.718954 -0.124715 -17.310107 -0.350672 -5.795061 0.000000 0.000000 0.000000 10.572031 6.162440 3.807750 -14.481528 -4.834823 -9.212548 26.071493 -11.607144 2.428796 -21.656341 -16.715469 7.956265 0.000000 0.000000 0.000000 1.398492 2.843910 0.471499 -1.007276 8.958012 -1.158016 3.030833 -1.159570 -0.474772 0.166933 -0.315423 -0.239604 0.000000 0.000000 0.000000 4.816875 0.612371 1.273900 0.133839 -0.468132 0.609700 0.000000 0.000000 0.000000 4.714023 -2.019377 0.877443 3.926407 -20.715057 -1.937774 1.489604 7.933180 -63.450600 0.111493 -28.546308 -9.098392 0.000000 0.000000 0.000000 1.598450 -1.060655 1.197222 1.271052 -2.906727 14.053681 7.889890 4.930304 58.268269 5.297117 34.537541 6.015244 0.000000 0.000000 0.000000 
